<?xml version="1.0" encoding="iso-8859-1"?>
<!-- Generator: Adobe Illustrator 19.0.0, SVG Export Plug-In . SVG Version: 6.00 Build 0)  -->
<svg version="1.1" id="Capa_1" xmlns="http://www.w3.org/2000/svg" xmlns:xlink="http://www.w3.org/1999/xlink" x="0px" y="0px"
	 viewBox="0 0 512 512" style="enable-background:new 0 0 512 512;" xml:space="preserve">
<g>
	<g>
		<path d="M507.611,355.811c-5.852-5.852-15.341-5.852-21.194,0l-39.673,39.673c-9.592-3.962-20.446-3.963-30.038,0l-86.919-86.919
			V203.349l86.814-86.813c4.704,1.952,9.792,2.976,15.039,2.976s10.336-1.024,15.04-2.976l39.652,39.652
			c2.926,2.926,6.762,4.39,10.596,4.39c3.835,0,7.671-1.464,10.596-4.39c5.853-5.852,5.853-15.341,0-21.194l-39.673-39.673
			c5.873-14.215,3.048-31.209-8.487-42.745c-11.537-11.536-28.53-14.36-42.744-8.486L376.947,4.416
			c-5.852-5.852-15.341-5.852-21.194,0s-5.853,15.341,0,21.194l39.673,39.673c-3.963,9.592-3.963,20.446,0,30.039l-83.579,83.579
			l-47.368-24.146c-5.308-2.706-11.646-2.706-16.959,0l-47.425,24.175l-83.608-83.608c3.963-9.592,3.963-20.446,0-30.039
			L156.16,25.61c5.853-5.852,5.853-15.341,0-21.194c-5.852-5.852-15.341-5.852-21.194,0L95.294,44.089
			c-14.216-5.874-31.21-3.048-42.744,8.487c-11.536,11.537-14.362,28.529-8.488,42.745L4.389,134.994
			c-5.853,5.852-5.853,15.341,0,21.194c2.926,2.926,6.762,4.39,10.596,4.39c3.835,0,7.671-1.464,10.596-4.39l39.652-39.652
			c4.704,1.952,9.793,2.976,15.039,2.976c5.247,0,10.336-1.024,15.04-2.976l86.898,86.898V308.65l-86.834,86.834
			c-9.592-3.962-20.446-3.963-30.038,0l-39.673-39.673c-5.852-5.852-15.341-5.852-21.194,0c-5.853,5.852-5.853,15.341,0,21.194
			l39.652,39.652c-1.952,4.704-2.976,9.793-2.976,15.04c0,10.474,4.079,20.321,11.485,27.725
			c7.643,7.644,17.684,11.467,27.725,11.467c5.113,0,10.224-0.996,15.02-2.978l39.672,39.672c2.926,2.926,6.762,4.39,10.596,4.39
			s7.671-1.464,10.596-4.39c5.853-5.852,5.853-15.341,0-21.194l-39.65-39.652c1.952-4.704,2.976-9.793,2.976-15.039
			c0-5.247-1.024-10.336-2.976-15.04l83.559-83.559l47.358,24.14c2.659,1.358,5.576,2.037,8.491,2.037
			c2.913,0,5.825-0.678,8.476-2.031l47.425-24.175l83.587,83.587c-1.953,4.704-2.976,9.793-2.976,15.04
			c0,5.246,1.024,10.336,2.976,15.039l-39.652,39.652c-5.853,5.852-5.853,15.341,0,21.194c2.926,2.926,6.762,4.39,10.596,4.39
			c3.834,0,7.671-1.464,10.596-4.39l39.672-39.672c4.796,1.982,9.907,2.978,15.02,2.977c10.039-0.001,20.082-3.823,27.725-11.466
			c7.405-7.405,11.485-17.252,11.485-27.726c0-5.247-1.024-10.336-2.976-15.04l39.652-39.652
			C513.463,371.152,513.463,361.663,507.611,355.811z"/>
	</g>
</g>
<g>
</g>
<g>
</g>
<g>
</g>
<g>
</g>
<g>
</g>
<g>
</g>
<g>
</g>
<g>
</g>
<g>
</g>
<g>
</g>
<g>
</g>
<g>
</g>
<g>
</g>
<g>
</g>
<g>
</g>
</svg>
